<svg width="24" height="24" viewBox="0 0 24 24" fill="none" xmlns="http://www.w3.org/2000/svg">
<path d="M6.6571 1C2.98565 1 0 3.96539 0 7.60991V17.1674C0 20.8119 2.98565 23.7756 6.6571 23.7756H16.3429C20.0143 23.7756 23 20.8119 23 17.1674V7.60991C23 3.96539 20.0143 1 16.3429 1H6.6571V1ZM6.6571 2.95796H16.3429C18.9559 2.95796 21.0292 5.01607 21.0292 7.60991V17.1674C21.0292 19.7612 18.9559 21.8177 16.3429 21.8177H6.6571C4.04408 21.8177 1.97241 19.7612 1.97241 17.1674V7.60991C1.97241 5.01607 4.04408 2.95796 6.6571 2.95796ZM17.6727 4.9159C16.9107 4.9159 16.2934 5.52867 16.2934 6.28498C16.2934 7.04132 16.9107 7.65407 17.6727 7.65407C18.4346 7.65407 19.0519 7.04132 19.0519 6.28498C19.0519 5.52867 18.4346 4.9159 17.6727 4.9159ZM11.5 6.52379C8.24893 6.52379 5.59264 9.16061 5.59264 12.3878C5.59264 15.615 8.24893 18.2518 11.5 18.2518C14.7511 18.2518 17.409 15.615 17.409 12.3878C17.409 9.16061 14.7511 6.52379 11.5 6.52379ZM11.5 8.48175C13.6853 8.48175 15.4366 10.2186 15.4366 12.3878C15.4366 14.5571 13.6853 16.2939 11.5 16.2939C9.31473 16.2939 7.56504 14.5571 7.56504 12.3878C7.56504 10.2186 9.31473 8.48175 11.5 8.48175Z" fill="#5C5C50"/>
</svg>
