<svg width="24" height="24" viewBox="0 0 24 24" fill="none" xmlns="http://www.w3.org/2000/svg">
<path d="M23 5.02175C22.191 5.36479 21.321 5.59664 20.4081 5.70109C21.3398 5.16716 22.0552 4.32212 22.3922 3.31539C21.5202 3.80975 20.5546 4.16833 19.526 4.36162C18.7032 3.52374 17.5301 3 16.232 3C13.7393 3 11.7189 4.93056 11.7189 7.31213C11.7189 7.65023 11.7584 7.97945 11.8357 8.29486C8.0846 8.11526 4.75901 6.39797 2.53295 3.78929C2.14443 4.4259 1.92189 5.16655 1.92189 5.95697C1.92189 7.45325 2.71835 8.77293 3.92973 9.54653C3.18992 9.52443 2.49391 9.33037 1.88538 9.00715C1.88451 9.02531 1.8845 9.04324 1.8845 9.06127C1.8845 11.151 3.44044 12.8935 5.50492 13.2899C5.12653 13.3885 4.7279 13.4406 4.31624 13.4406C4.02512 13.4406 3.74286 13.4143 3.46681 13.3637C4.04153 15.0768 5.70801 16.3238 7.68334 16.3587C6.13742 17.5155 4.19166 18.2045 2.07697 18.2045C1.71292 18.2045 1.35337 18.184 1 18.1444C2.99818 19.3679 5.37022 20.0815 7.91929 20.0815C16.2207 20.0815 20.7597 13.5109 20.7597 7.81191C20.7597 7.62503 20.7552 7.43943 20.747 7.2545C21.6285 6.64602 22.3936 5.88673 22.999 5.02178" fill="#5C5C50"/>
</svg>
