<svg width="28" height="28" viewBox="0 0 28 28" fill="none" xmlns="http://www.w3.org/2000/svg">
<g clip-path="url(#clip0_1621_43)">
<path d="M25.0281 17.3843C24.2874 19.7189 22.6488 22.6068 19.4601 24.3165C17.5758 25.3269 15.5387 25.7613 13.5481 25.6815L13.6022 2.62135C14.1984 2.62161 14.9131 2.65142 15.6442 2.73448C15.9947 2.7743 16.338 2.82524 16.6664 2.88794C17.3908 3.06008 18.0981 3.30165 18.7774 3.60946C21.0085 4.62045 22.9361 6.34475 24.1835 8.67121C25.2129 10.5909 25.6441 12.6683 25.5435 14.6936C25.5011 15.3772 25.3458 16.3299 25.0281 17.3843ZM11.6016 2.88452L11.5487 25.4257C8.35578 24.7314 5.47862 22.696 3.81481 19.5931C0.798808 13.9684 2.91356 6.96379 8.53823 3.94779C9.1905 3.59803 10.2788 3.16524 11.6016 2.88452Z" stroke="url(#paint0_linear_1621_43)" stroke-width="2"/>
</g>
<defs>
<linearGradient id="paint0_linear_1621_43" x1="1.91415" y1="12.471" x2="28.354" y2="14.1309" gradientUnits="userSpaceOnUse">
<stop offset="0.288448" stop-color="white"/>
<stop offset="0.780176" stop-color="white" stop-opacity="0"/>
</linearGradient>
<clipPath id="clip0_1621_43">
<rect width="28" height="28" fill="white"/>
</clipPath>
</defs>
</svg>
