<svg width="20" height="20" viewBox="0 0 20 20" fill="none" xmlns="http://www.w3.org/2000/svg">
<g clip-path="url(#clip0_1607_4)">
<path d="M18.6818 12.4638C18.1028 14.3051 16.8142 16.5871 14.2917 17.9398C12.7282 18.7781 11.0306 19.1127 9.38314 19.0004L9.42568 0.872353C9.47777 0.868061 9.53005 0.864163 9.58253 0.860673C10.0681 0.857131 10.6665 0.878762 11.28 0.948466C11.5536 0.97956 11.8247 1.01965 12.0863 1.06974C12.6587 1.20533 13.2174 1.39597 13.754 1.63911C15.5103 2.43496 17.0281 3.79268 18.0099 5.62379C18.8203 7.13505 19.1598 8.77138 19.0803 10.3665C19.0472 10.904 18.9268 11.645 18.6818 12.4638ZM8.42537 1.00433L8.38343 18.8765C5.74393 18.4002 3.34092 16.7675 1.97576 14.2215C-0.398422 9.79376 1.2663 4.27971 5.694 1.90552C6.26708 1.59823 7.24635 1.21767 8.42537 1.00433Z" stroke="url(#paint0_linear_1607_4)"/>
</g>
<defs>
<linearGradient id="paint0_linear_1607_4" x1="0.755987" y1="8.65295" x2="20.9646" y2="9.92165" gradientUnits="userSpaceOnUse">
<stop offset="0.288448" stop-color="#555248"/>
<stop offset="0.780176" stop-color="#1B1A17" stop-opacity="0"/>
</linearGradient>
<clipPath id="clip0_1607_4">
<rect width="20" height="20" fill="white"/>
</clipPath>
</defs>
</svg>
